<svg xmlns="http://www.w3.org/2000/svg" viewBox="0 0 64 48" width="640" height="480" shape-rendering="crispEdges">
<!-- loaf_orbit: pixel art drawn for YEON-OS -->
<rect width="64" height="48" fill="#151c5c"/>
<path fill="#0A0F3C" d="M0 0h64v1h-64zM0 1h2v1h-2zM3 1h61v1h-61zM0 2h12v1h-12zM13 2h33v1h-33zM47 2h17v1h-17zM0 3h4v1h-4zM5 3h52v1h-52zM58 3h6v1h-6zM1 4h3v1h-3zM5 4h3v1h-3zM9 4h3v1h-3zM13 4h3v1h-3zM17 4h3v1h-3zM21 4h3v1h-3zM25 4h3v1h-3zM29 4h3v1h-3zM33 4h3v1h-3zM37 4h3v1h-3zM41 4h3v1h-3zM45 4h3v1h-3zM49 4h3v1h-3zM53 4h3v1h-3zM57 4h3v1h-3zM61 4h1v1h-1zM63 4h1v1h-1zM0 5h43v1h-43zM44 5h8v1h-8zM53 5h11v1h-11zM0 6h2v1h-2zM3 6h3v1h-3zM7 6h3v1h-3zM11 6h3v1h-3zM15 6h3v1h-3zM19 6h3v1h-3zM23 6h3v1h-3zM27 6h3v1h-3zM31 6h3v1h-3zM35 6h3v1h-3zM39 6h3v1h-3zM45 6h1v1h-1zM47 6h3v1h-3zM51 6h3v1h-3zM55 6h3v1h-3zM59 6h3v1h-3zM63 6h1v1h-1zM0 7h25v1h-25zM26 7h17v1h-17zM44 7h20v1h-20zM1 8h1v1h-1zM3 8h1v1h-1zM5 8h1v1h-1zM7 8h1v1h-1zM9 8h1v1h-1zM11 8h1v1h-1zM13 8h1v1h-1zM15 8h1v1h-1zM17 8h1v1h-1zM19 8h1v1h-1zM21 8h1v1h-1zM23 8h1v1h-1zM25 8h1v1h-1zM27 8h1v1h-1zM29 8h1v1h-1zM31 8h1v1h-1zM33 8h1v1h-1zM35 8h1v1h-1zM39 8h1v1h-1zM41 8h1v1h-1zM43 8h1v1h-1zM45 8h1v1h-1zM47 8h1v1h-1zM49 8h1v1h-1zM51 8h1v1h-1zM53 8h1v1h-1zM55 8h1v1h-1zM57 8h1v1h-1zM59 8h1v1h-1zM61 8h1v1h-1zM63 8h1v1h-1zM1 9h17v1h-17zM19 9h5v1h-5zM25 9h14v1h-14zM42 9h22v1h-22zM1 10h1v1h-1zM3 10h1v1h-1zM5 10h1v1h-1zM7 10h1v1h-1zM9 10h1v1h-1zM11 10h1v1h-1zM13 10h1v1h-1zM15 10h1v1h-1zM21 10h1v1h-1zM23 10h1v1h-1zM25 10h1v1h-1zM27 10h1v1h-1zM29 10h1v1h-1zM31 10h1v1h-1zM33 10h1v1h-1zM35 10h1v1h-1zM39 10h1v1h-1zM41 10h1v1h-1zM43 10h1v1h-1zM45 10h1v1h-1zM47 10h1v1h-1zM49 10h1v1h-1zM51 10h1v1h-1zM53 10h1v1h-1zM55 10h1v1h-1zM57 10h1v1h-1zM59 10h1v1h-1zM61 10h1v1h-1zM63 10h1v1h-1zM0 11h6v1h-6zM7 11h11v1h-11zM19 11h7v1h-7zM28 11h8v1h-8zM38 11h26v1h-26zM3 12h1v1h-1zM5 12h1v1h-1zM7 12h1v1h-1zM9 12h1v1h-1zM11 12h1v1h-1zM13 12h1v1h-1zM15 12h1v1h-1zM17 12h1v1h-1zM19 12h1v1h-1zM21 12h1v1h-1zM23 12h1v1h-1zM25 12h1v1h-1zM29 12h1v1h-1zM31 12h1v1h-1zM33 12h1v1h-1zM39 12h1v1h-1zM41 12h1v1h-1zM43 12h1v1h-1zM45 12h1v1h-1zM47 12h1v1h-1zM49 12h1v1h-1zM51 12h1v1h-1zM53 12h1v1h-1zM55 12h1v1h-1zM57 12h1v1h-1zM59 12h1v1h-1zM61 12h1v1h-1zM63 12h1v1h-1zM0 13h1v1h-1zM2 13h3v1h-3zM6 13h3v1h-3zM10 13h3v1h-3zM14 13h3v1h-3zM18 13h3v1h-3zM22 13h3v1h-3zM38 13h3v1h-3zM42 13h3v1h-3zM46 13h3v1h-3zM50 13h3v1h-3zM54 13h3v1h-3zM58 13h3v1h-3zM62 13h2v1h-2zM1 14h1v1h-1zM3 14h1v1h-1zM5 14h1v1h-1zM7 14h1v1h-1zM9 14h1v1h-1zM11 14h1v1h-1zM13 14h1v1h-1zM15 14h1v1h-1zM17 14h1v1h-1zM19 14h1v1h-1zM21 14h1v1h-1zM23 14h1v1h-1zM39 14h1v1h-1zM41 14h1v1h-1zM43 14h1v1h-1zM47 14h1v1h-1zM49 14h1v1h-1zM51 14h1v1h-1zM53 14h1v1h-1zM55 14h1v1h-1zM57 14h1v1h-1zM59 14h1v1h-1zM61 14h1v1h-1zM63 14h1v1h-1zM0 15h3v1h-3zM4 15h3v1h-3zM8 15h2v1h-2zM12 15h3v1h-3zM16 15h3v1h-3zM20 15h3v1h-3zM24 15h1v1h-1zM40 15h3v1h-3zM44 15h1v1h-1zM46 15h1v1h-1zM48 15h3v1h-3zM52 15h3v1h-3zM56 15h3v1h-3zM60 15h3v1h-3zM1 16h1v1h-1zM3 16h1v1h-1zM5 16h1v1h-1zM7 16h1v1h-1zM9 16h1v1h-1zM11 16h1v1h-1zM13 16h1v1h-1zM15 16h1v1h-1zM17 16h1v1h-1zM19 16h1v1h-1zM21 16h1v1h-1zM23 16h1v1h-1zM39 16h1v1h-1zM41 16h1v1h-1zM43 16h1v1h-1zM45 16h1v1h-1zM47 16h1v1h-1zM49 16h1v1h-1zM51 16h1v1h-1zM53 16h1v1h-1zM55 16h1v1h-1zM57 16h1v1h-1zM59 16h1v1h-1zM61 16h1v1h-1zM63 16h1v1h-1zM0 17h1v1h-1zM2 17h1v1h-1zM4 17h1v1h-1zM6 17h1v1h-1zM8 17h1v1h-1zM10 17h1v1h-1zM12 17h1v1h-1zM14 17h1v1h-1zM16 17h1v1h-1zM18 17h1v1h-1zM20 17h1v1h-1zM22 17h1v1h-1zM24 17h1v1h-1zM40 17h1v1h-1zM42 17h1v1h-1zM44 17h1v1h-1zM46 17h1v1h-1zM48 17h1v1h-1zM50 17h1v1h-1zM52 17h1v1h-1zM54 17h1v1h-1zM56 17h1v1h-1zM58 17h1v1h-1zM60 17h1v1h-1zM62 17h1v1h-1zM1 18h1v1h-1zM3 18h1v1h-1zM5 18h1v1h-1zM7 18h1v1h-1zM9 18h1v1h-1zM11 18h1v1h-1zM13 18h1v1h-1zM15 18h1v1h-1zM17 18h1v1h-1zM19 18h1v1h-1zM21 18h1v1h-1zM23 18h1v1h-1zM39 18h1v1h-1zM41 18h1v1h-1zM43 18h1v1h-1zM45 18h1v1h-1zM47 18h1v1h-1zM49 18h1v1h-1zM51 18h1v1h-1zM53 18h1v1h-1zM55 18h1v1h-1zM57 18h1v1h-1zM59 18h1v1h-1zM61 18h1v1h-1zM63 18h1v1h-1zM0 19h1v1h-1zM2 19h1v1h-1zM4 19h1v1h-1zM6 19h1v1h-1zM8 19h1v1h-1zM10 19h1v1h-1zM12 19h1v1h-1zM14 19h1v1h-1zM18 19h1v1h-1zM22 19h1v1h-1zM24 19h1v1h-1zM40 19h1v1h-1zM42 19h1v1h-1zM46 19h1v1h-1zM50 19h1v1h-1zM52 19h1v1h-1zM54 19h1v1h-1zM56 19h1v1h-1zM58 19h1v1h-1zM60 19h1v1h-1zM62 19h1v1h-1zM3 20h1v1h-1zM7 20h1v1h-1zM11 20h1v1h-1zM15 20h1v1h-1zM19 20h1v1h-1zM23 20h1v1h-1zM39 20h1v1h-1zM43 20h1v1h-1zM55 20h1v1h-1zM59 20h1v1h-1zM63 20h1v1h-1zM0 21h1v1h-1zM2 21h1v1h-1zM4 21h1v1h-1zM6 21h1v1h-1zM10 21h1v1h-1zM12 21h1v1h-1zM14 21h1v1h-1zM16 21h1v1h-1zM18 21h1v1h-1zM20 21h1v1h-1zM22 21h1v1h-1zM24 21h1v1h-1zM40 21h1v1h-1zM42 21h1v1h-1zM44 21h1v1h-1zM46 21h1v1h-1zM48 21h1v1h-1zM50 21h1v1h-1zM52 21h1v1h-1zM54 21h1v1h-1zM58 21h1v1h-1zM60 21h1v1h-1zM62 21h1v1h-1zM1 22h1v1h-1zM5 22h1v1h-1zM9 22h1v1h-1zM13 22h1v1h-1zM17 22h1v1h-1zM21 22h1v1h-1zM41 22h1v1h-1zM45 22h1v1h-1zM49 22h1v1h-1zM53 22h1v1h-1zM57 22h1v1h-1zM61 22h1v1h-1zM0 23h1v1h-1zM2 23h1v1h-1zM4 23h1v1h-1zM6 23h1v1h-1zM8 23h1v1h-1zM10 23h1v1h-1zM12 23h1v1h-1zM14 23h1v1h-1zM16 23h1v1h-1zM18 23h1v1h-1zM20 23h1v1h-1zM22 23h1v1h-1zM42 23h1v1h-1zM44 23h1v1h-1zM46 23h1v1h-1zM48 23h1v1h-1zM50 23h1v1h-1zM52 23h1v1h-1zM54 23h1v1h-1zM58 23h1v1h-1zM60 23h1v1h-1zM62 23h1v1h-1zM0 25h1v1h-1zM2 25h1v1h-1zM4 25h1v1h-1zM6 25h1v1h-1zM8 25h1v1h-1zM10 25h1v1h-1zM12 25h1v1h-1zM16 25h1v1h-1zM18 25h1v1h-1zM20 25h1v1h-1zM22 25h1v1h-1zM42 25h1v1h-1zM44 25h1v1h-1zM46 25h1v1h-1zM48 25h1v1h-1zM50 25h1v1h-1zM52 25h1v1h-1zM54 25h1v1h-1zM56 25h1v1h-1zM58 25h1v1h-1zM60 25h1v1h-1zM62 25h1v1h-1zM0 27h1v1h-1zM2 27h1v1h-1zM4 27h1v1h-1zM6 27h1v1h-1zM10 27h1v1h-1zM12 27h1v1h-1zM14 27h1v1h-1zM16 27h1v1h-1zM18 27h1v1h-1zM20 27h1v1h-1zM22 27h1v1h-1zM24 27h1v1h-1zM26 27h1v1h-1zM28 27h1v1h-1zM30 27h1v1h-1zM32 27h1v1h-1zM34 27h1v1h-1zM36 27h1v1h-1zM38 27h1v1h-1zM40 27h1v1h-1zM42 27h1v1h-1zM44 27h1v1h-1zM46 27h1v1h-1zM48 27h1v1h-1zM50 27h1v1h-1zM52 27h1v1h-1zM54 27h1v1h-1zM58 27h1v1h-1zM60 27h1v1h-1zM62 27h1v1h-1zM2 29h1v1h-1zM6 29h1v1h-1zM10 29h1v1h-1zM14 29h1v1h-1zM18 29h1v1h-1zM22 29h1v1h-1zM26 29h1v1h-1zM30 29h1v1h-1zM34 29h1v1h-1zM38 29h1v1h-1zM42 29h1v1h-1zM46 29h1v1h-1zM50 29h1v1h-1zM54 29h1v1h-1zM58 29h1v1h-1zM62 29h1v1h-1zM0 31h1v1h-1zM4 31h1v1h-1zM8 31h1v1h-1zM12 31h1v1h-1zM16 31h1v1h-1zM20 31h1v1h-1zM24 31h1v1h-1zM28 31h1v1h-1zM32 31h1v1h-1zM36 31h1v1h-1zM40 31h1v1h-1zM44 31h1v1h-1zM52 31h1v1h-1zM56 31h1v1h-1zM60 31h1v1h-1z"/>
<path fill="#9AA3D5" d="M2 1h1v1h-1zM46 2h1v1h-1zM52 5h1v1h-1zM25 7h1v1h-1zM12 12h1v1h-1zM8 18h1v1h-1zM24 18h1v1h-1zM40 18h1v1h-1zM16 19h1v1h-1zM20 19h1v1h-1zM44 19h1v1h-1zM48 19h1v1h-1zM10 20h1v1h-1zM13 20h1v1h-1zM47 20h1v1h-1zM51 20h1v1h-1zM54 20h1v1h-1zM8 21h1v1h-1zM56 21h1v1h-1zM6 22h1v1h-1zM58 22h1v1h-1zM5 23h1v1h-1zM59 23h1v1h-1zM5 24h1v1h-1zM59 24h1v1h-1zM5 25h1v1h-1zM59 25h1v1h-1zM6 26h1v1h-1zM58 26h1v1h-1zM8 27h1v1h-1zM56 27h1v1h-1zM10 28h1v1h-1zM13 28h1v1h-1zM51 28h1v1h-1zM54 28h1v1h-1zM16 29h1v1h-1zM20 29h1v1h-1zM44 29h1v1h-1zM48 29h1v1h-1zM24 30h1v1h-1zM28 30h1v1h-1zM32 30h1v1h-1zM36 30h1v1h-1zM40 30h1v1h-1zM9 33h1v1h-1zM20 39h1v1h-1zM14 43h1v1h-1zM4 47h1v1h-1z"/>
<path fill="#FFFFFF" d="M12 2h1v1h-1zM4 3h1v1h-1zM62 4h1v1h-1zM43 6h1v1h-1zM40 9h1v1h-1zM18 10h1v1h-1zM1 12h1v1h-1zM45 14h1v1h-1zM10 15h1v1h-1zM28 16h1v1h-1zM34 16h1v1h-1zM55 19h1v1h-1zM55 21h1v1h-1zM47 23h1v1h-1zM56 23h1v1h-1zM25 25h2v1h-2zM37 25h2v1h-2zM11 27h1v1h-1zM12 28h1v1h-1zM10 31h1v1h-1zM46 31h1v1h-1zM50 31h1v1h-1zM57 31h1v1h-1zM37 35h1v1h-1zM63 37h1v1h-1zM16 39h1v1h-1zM60 42h1v1h-1zM59 46h1v1h-1z"/>
<path fill="#F5C542" d="M57 3h1v1h-1zM43 5h1v1h-1zM42 6h1v1h-1zM44 6h1v1h-1zM43 7h1v1h-1zM28 8h1v1h-1zM18 9h1v1h-1zM24 9h1v1h-1zM17 10h1v1h-1zM19 10h1v1h-1zM18 11h1v1h-1zM45 13h1v1h-1zM44 14h1v1h-1zM46 14h1v1h-1zM45 15h1v1h-1zM41 23h1v1h-1zM1 27h1v1h-1zM11 32h1v1h-1zM42 35h1v1h-1zM57 35h1v1h-1zM53 39h1v1h-1zM3 40h1v1h-1z"/>
<path fill="#7FE3F0" d="M37 8h1v1h-1zM0 9h1v1h-1zM6 11h1v1h-1zM46 12h1v1h-1zM62 12h1v1h-1zM14 25h1v1h-1zM46 26h1v1h-1zM24 28h1v1h-1zM57 28h1v1h-1zM48 31h1v1h-1zM42 33h1v1h-1z"/>
<path fill="#3fa9c4" d="M40 8h1v1h-1zM39 9h1v1h-1zM41 9h1v1h-1zM40 10h1v1h-1zM56 22h1v1h-1zM55 23h1v1h-1zM57 23h1v1h-1zM56 24h1v1h-1zM37 34h1v1h-1zM36 35h1v1h-1zM38 35h1v1h-1zM37 36h1v1h-1zM63 36h1v1h-1zM62 37h1v1h-1zM63 38h1v1h-1zM36 47h1v1h-1zM40 47h1v1h-1zM44 47h1v1h-1zM46 47h1v1h-1zM48 47h1v1h-1zM50 47h1v1h-1zM52 47h1v1h-1z"/>
<path fill="#1A1A1A" d="M26 10h1v1h-1zM37 10h1v1h-1zM26 11h2v1h-2zM36 11h2v1h-2zM26 12h1v1h-1zM28 12h1v1h-1zM35 12h1v1h-1zM37 12h1v1h-1zM26 13h1v1h-1zM29 13h6v1h-6zM37 13h1v1h-1zM25 14h1v1h-1zM38 14h1v1h-1zM25 15h1v1h-1zM38 15h1v1h-1zM25 16h1v1h-1zM29 16h1v1h-1zM35 16h1v1h-1zM38 16h1v1h-1zM25 17h1v1h-1zM28 17h2v1h-2zM34 17h2v1h-2zM38 17h1v1h-1zM25 18h1v1h-1zM38 18h1v1h-1zM25 19h1v1h-1zM30 19h1v1h-1zM33 19h1v1h-1zM38 19h1v1h-1zM26 20h1v1h-1zM31 20h2v1h-2zM37 20h1v1h-1zM25 21h1v1h-1zM27 21h10v1h-10zM38 21h1v1h-1zM24 22h1v1h-1zM39 22h1v1h-1zM23 23h1v1h-1zM40 23h1v1h-1zM23 24h1v1h-1zM40 24h1v1h-1zM23 25h1v1h-1zM40 25h1v1h-1zM24 26h16v1h-16z"/>
<path fill="#F29BB2" d="M27 12h1v1h-1zM36 12h1v1h-1zM27 13h2v1h-2zM35 13h2v1h-2zM26 18h1v1h-1zM31 18h2v1h-2zM37 18h1v1h-1z"/>
<path fill="#8a8fa3" d="M26 14h5v1h-5zM33 14h5v1h-5zM26 15h4v1h-4zM31 15h2v1h-2zM34 15h4v1h-4zM26 16h2v1h-2zM30 16h4v1h-4zM36 16h2v1h-2zM26 17h2v1h-2zM30 17h4v1h-4zM36 17h2v1h-2zM27 18h3v1h-3zM34 18h3v1h-3zM26 19h3v1h-3zM35 19h3v1h-3zM27 20h2v1h-2zM35 20h2v1h-2zM26 21h1v1h-1zM37 21h1v1h-1zM25 22h14v1h-14zM24 23h16v1h-16zM24 24h16v1h-16zM24 25h1v1h-1zM27 25h10v1h-10zM39 25h1v1h-1z"/>
<path fill="#5c6178" d="M31 14h2v1h-2zM30 15h1v1h-1zM33 15h1v1h-1z"/>
<path fill="#d9d2bf" d="M30 18h1v1h-1zM33 18h1v1h-1zM29 19h1v1h-1zM31 19h2v1h-2zM34 19h1v1h-1zM29 20h2v1h-2zM33 20h2v1h-2z"/>
<path fill="#2F3BA3" d="M0 36h1v1h-1zM4 36h1v1h-1zM8 36h1v1h-1zM12 36h1v1h-1zM16 36h1v1h-1zM20 36h1v1h-1zM24 36h1v1h-1zM28 36h1v1h-1zM32 36h1v1h-1zM36 36h1v1h-1zM40 36h1v1h-1zM44 36h1v1h-1zM48 36h1v1h-1zM52 36h1v1h-1zM56 36h1v1h-1zM60 36h1v1h-1zM0 38h1v1h-1zM2 38h1v1h-1zM4 38h1v1h-1zM6 38h1v1h-1zM8 38h1v1h-1zM10 38h1v1h-1zM12 38h1v1h-1zM14 38h1v1h-1zM16 38h1v1h-1zM18 38h1v1h-1zM20 38h1v1h-1zM22 38h1v1h-1zM24 38h1v1h-1zM26 38h1v1h-1zM28 38h1v1h-1zM30 38h1v1h-1zM32 38h1v1h-1zM34 38h1v1h-1zM36 38h1v1h-1zM38 38h1v1h-1zM40 38h1v1h-1zM42 38h1v1h-1zM44 38h1v1h-1zM46 38h1v1h-1zM48 38h1v1h-1zM50 38h1v1h-1zM52 38h1v1h-1zM54 38h1v1h-1zM56 38h1v1h-1zM58 38h1v1h-1zM60 38h1v1h-1zM62 38h1v1h-1zM3 39h1v1h-1zM7 39h1v1h-1zM11 39h1v1h-1zM15 39h1v1h-1zM19 39h1v1h-1zM23 39h1v1h-1zM27 39h1v1h-1zM31 39h1v1h-1zM35 39h1v1h-1zM39 39h1v1h-1zM43 39h1v1h-1zM47 39h1v1h-1zM51 39h1v1h-1zM55 39h1v1h-1zM59 39h1v1h-1zM63 39h1v1h-1zM0 40h1v1h-1zM2 40h1v1h-1zM4 40h1v1h-1zM6 40h1v1h-1zM8 40h1v1h-1zM10 40h1v1h-1zM12 40h1v1h-1zM14 40h1v1h-1zM16 40h1v1h-1zM18 40h1v1h-1zM20 40h1v1h-1zM22 40h1v1h-1zM24 40h1v1h-1zM38 40h1v1h-1zM40 40h1v1h-1zM42 40h1v1h-1zM44 40h1v1h-1zM46 40h1v1h-1zM48 40h1v1h-1zM50 40h1v1h-1zM52 40h1v1h-1zM54 40h1v1h-1zM56 40h1v1h-1zM58 40h1v1h-1zM60 40h1v1h-1zM62 40h1v1h-1zM1 41h1v1h-1zM3 41h1v1h-1zM5 41h1v1h-1zM7 41h1v1h-1zM9 41h1v1h-1zM11 41h1v1h-1zM13 41h1v1h-1zM15 41h1v1h-1zM17 41h1v1h-1zM19 41h1v1h-1zM43 41h1v1h-1zM45 41h1v1h-1zM47 41h1v1h-1zM49 41h1v1h-1zM51 41h1v1h-1zM53 41h1v1h-1zM55 41h1v1h-1zM57 41h1v1h-1zM59 41h1v1h-1zM61 41h1v1h-1zM63 41h1v1h-1zM0 42h1v1h-1zM2 42h1v1h-1zM4 42h1v1h-1zM6 42h1v1h-1zM8 42h1v1h-1zM10 42h1v1h-1zM12 42h1v1h-1zM14 42h1v1h-1zM16 42h1v1h-1zM46 42h1v1h-1zM48 42h1v1h-1zM50 42h1v1h-1zM52 42h1v1h-1zM54 42h1v1h-1zM56 42h1v1h-1zM58 42h1v1h-1zM62 42h1v1h-1zM1 43h1v1h-1zM3 43h1v1h-1zM5 43h1v1h-1zM7 43h1v1h-1zM9 43h1v1h-1zM11 43h1v1h-1zM13 43h1v1h-1zM15 43h1v1h-1zM49 43h1v1h-1zM51 43h1v1h-1zM53 43h1v1h-1zM55 43h1v1h-1zM57 43h1v1h-1zM59 43h1v1h-1zM61 43h1v1h-1zM63 43h1v1h-1zM0 44h14v1h-14zM50 44h14v1h-14zM0 45h2v1h-2zM3 45h3v1h-3zM7 45h3v1h-3zM11 45h1v1h-1zM52 45h2v1h-2zM55 45h3v1h-3zM59 45h3v1h-3zM63 45h1v1h-1zM0 46h11v1h-11zM53 46h6v1h-6zM60 46h4v1h-4zM1 47h3v1h-3zM5 47h3v1h-3zM55 47h1v1h-1zM57 47h3v1h-3zM61 47h3v1h-3z"/>
<path fill="#237a95" d="M26 40h12v1h-12zM21 41h22v1h-22zM18 42h28v1h-28zM16 43h32v1h-32zM14 44h36v1h-36zM12 45h40v1h-40zM11 46h42v1h-42zM9 47h27v1h-27zM37 47h3v1h-3zM41 47h3v1h-3zM45 47h1v1h-1zM47 47h1v1h-1zM49 47h1v1h-1zM51 47h1v1h-1zM53 47h2v1h-2z"/>
</svg>
